# xmcd CD database file
# Copyright (C) 1995-1998 Ti Kan
#
# Track frame offsets:
#	150
#	19790
#	35138
#	55163
#	74668
#	91155
#	99015
#	114290
#	129665
#	144468
#	162373
#	177373
#
# Disc length: 2552 seconds
#
# Revision: 34482332
# Submitted via:  audiograbber 1.62
#
DISCID=9f09f60c
DTITLE=Soundtrack / Austin Powers - The Spy Who Shagged Me
TTITLE0=Madonna / Beautiful Stranger
TTITLE1=The Who / My Generation
TTITLE2=R.E.M. / Draggin' the Line
TTITLE3=Lenny Kravitz / American Woman
TTITLE4=Melanie G / Word Up
TTITLE5=Dr. Evil / Just the Two of Us
TTITLE6=Green Day / Espionage
TTITLE7=Big Blue Missile with Scott Weiland / Time of the Season
TTITLE8=The Flaming Lips / Buggin'
TTITLE9=The Lucy Nation / Alright
TTITLE10=Burt Bacharach & Elvis Costello / I'll Never Fall in Love Again
TTITLE11=Quincy Jones and His Orchestra / Soul Bossa Nove (Dim's Space-A-Nov
TTITLE11=a)
EXTD=Music from the Motion Picture\nYEAR: 2000  ID3G:  24
EXTT0=Madonna
EXTT1=Who, The
EXTT2=R.E.M.
EXTT3=Lenny Kravitz
EXTT4=Melanie G (aka Scary Spice)
EXTT5=Dr. Evil
EXTT6=Green Day
EXTT7=Big Blue Missile with Scott Weiland
EXTT8=Flaming Lips, The
EXTT9=Lucy Nation, The
EXTT10=Burt Bacharach & Elvis Costello
EXTT11=Quincy Jones and His Orchestra
PLAYORDER=
